<svg width="305" height="13" viewBox="0 0 305 13" fill="none" xmlns="http://www.w3.org/2000/svg">
<path d="M1.11694 5.704C1.11694 3.568 2.13694 2.164 3.90094 2.164C5.34094 2.164 5.96494 2.968 6.15694 3.928H7.16494C6.88894 2.368 5.77294 1.288 3.90094 1.288C1.69294 1.288 0.0609375 3.016 0.0609375 5.704C0.0609375 8.404 1.69294 10.144 3.90094 10.144C5.77294 10.144 6.88894 9.064 7.16494 7.504H6.15694C5.96494 8.464 5.34094 9.268 3.90094 9.268C2.13694 9.268 1.11694 7.84 1.11694 5.704ZM14.0475 6.988C14.0475 5.044 12.8475 3.82 11.1795 3.82C9.5115 3.82 8.3115 5.044 8.3115 6.988C8.3115 8.932 9.5115 10.144 11.1795 10.144C12.8475 10.144 14.0475 8.932 14.0475 6.988ZM9.2955 6.988C9.2955 5.536 10.0035 4.624 11.1795 4.624C12.3555 4.624 13.0635 5.536 13.0635 6.988C13.0635 8.44 12.3555 9.34 11.1795 9.34C10.0035 9.34 9.2955 8.44 9.2955 6.988ZM16.7359 8.944C17.0359 9.556 17.7439 10.144 18.7399 10.144C20.2759 10.144 21.4279 8.896 21.4279 6.988C21.4279 5.068 20.2759 3.82 18.7399 3.82C17.6959 3.82 16.9759 4.456 16.6999 5.068V3.964H15.7399V12.136H16.7359V8.944ZM16.6879 6.892C16.6879 5.524 17.3599 4.6 18.5359 4.6C19.7239 4.6 20.4199 5.572 20.4199 6.988C20.4199 8.392 19.7239 9.364 18.5359 9.364C17.3599 9.364 16.6879 8.428 16.6879 7.06V6.892ZM24.6623 10.048C24.2663 11.068 23.9903 11.404 23.3903 11.404C23.2343 11.404 23.1023 11.404 22.9103 11.356V12.172C23.1023 12.208 23.3303 12.232 23.4983 12.232C24.6023 12.22 25.0823 11.62 25.6343 10.18L28.0703 3.964H27.0383L25.2263 8.896H25.2023L23.2823 3.964H22.2383L24.6623 10.048ZM32.8223 3.88C32.6783 3.844 32.5103 3.832 32.3542 3.832C31.4662 3.832 30.6982 4.396 30.4342 5.392V3.964H29.4743V10H30.4703V7.024C30.4703 5.5 31.3463 4.744 32.3062 4.744C32.4622 4.744 32.6783 4.756 32.8223 4.792V3.88ZM34.0194 2.704H35.1474V1.492H34.0194V2.704ZM34.0914 10H35.0874V3.964H34.0914V10ZM41.4443 9.616C41.4443 10.876 40.7723 11.512 39.5843 11.512C38.7683 11.512 38.1323 11.272 37.9283 10.516H36.9203C37.1603 11.692 38.1443 12.28 39.5963 12.28C41.2043 12.28 42.4523 11.464 42.4523 9.544V3.964H41.4803V5.02C41.1923 4.444 40.4963 3.82 39.4403 3.82C37.8923 3.82 36.7643 5.032 36.7643 6.844C36.7643 8.728 37.8923 9.892 39.4403 9.892C40.4963 9.892 41.1683 9.316 41.4443 8.728V9.616ZM41.5163 6.988C41.5163 8.236 40.7363 9.1 39.6203 9.1C38.4443 9.1 37.7483 8.176 37.7483 6.844C37.7483 5.5 38.4443 4.6 39.6203 4.6C40.7363 4.6 41.5163 5.452 41.5163 6.7V6.988ZM45.5874 5.068V1.168H44.5914V10H45.5874V6.676C45.5874 5.224 46.3194 4.636 47.2434 4.636C48.1914 4.636 48.6834 5.212 48.6834 6.328V10H49.6794V6.112C49.6794 4.672 48.8754 3.82 47.5194 3.82C46.5954 3.82 45.8754 4.3 45.5874 5.068ZM54.5596 9.112C54.1756 9.232 53.9116 9.256 53.6836 9.256C53.1316 9.256 52.8076 9.04 52.8076 8.404V4.72H54.4036V3.964H52.8196V2.428H51.8356V3.964H50.9476V4.72H51.8356V8.452C51.8356 9.568 52.3996 10.096 53.5036 10.096C53.7676 10.096 54.1156 10.06 54.5596 9.928V9.112ZM67.3628 5.728C67.3628 3.268 65.3828 1.276 62.9348 1.276C60.4988 1.276 58.4948 3.268 58.4948 5.728C58.4948 8.164 60.4988 10.144 62.9348 10.144C65.3828 10.144 67.3628 8.164 67.3628 5.728ZM59.0228 5.728C59.0228 3.556 60.7748 1.792 62.9348 1.792C65.0948 1.792 66.8468 3.556 66.8468 5.728C66.8468 7.876 65.0948 9.628 62.9348 9.628C60.7748 9.628 59.0228 7.876 59.0228 5.728ZM61.4348 5.704C61.4348 4.576 61.9748 3.808 63.0068 3.808C63.8228 3.808 64.1828 4.288 64.2788 4.78H65.1188C64.9388 3.76 64.2548 3.064 63.0068 3.064C61.5908 3.064 60.5708 4.132 60.5708 5.704C60.5708 7.276 61.5908 8.344 63.0068 8.344C64.2548 8.344 64.9388 7.636 65.1188 6.628H64.2788C64.1828 7.12 63.8228 7.588 63.0068 7.6C61.9748 7.588 61.4348 6.832 61.4348 5.704ZM77.0338 3.784C77.0338 2.512 76.1218 1.288 74.3218 1.288C72.5218 1.288 71.4898 2.56 71.4058 4.072H72.3778C72.4498 3.04 73.1338 2.152 74.3098 2.152C75.5818 2.152 76.0498 2.968 76.0498 3.784C76.0498 4.78 75.1258 5.416 73.9858 6.148C72.7138 6.94 71.2378 8.008 71.2378 9.532V10H77.1178V9.136H72.3418C72.3418 8.356 73.3738 7.636 74.4178 6.94C75.7018 6.112 77.0338 5.392 77.0338 3.784ZM78.273 5.716C78.273 8.284 79.605 10.144 81.681 10.144C83.769 10.144 85.089 8.284 85.089 5.716C85.089 3.148 83.769 1.288 81.681 1.288C79.605 1.288 78.273 3.148 78.273 5.716ZM79.329 5.716C79.329 3.616 80.121 2.176 81.681 2.176C83.253 2.176 84.045 3.616 84.045 5.716C84.045 7.816 83.253 9.256 81.681 9.256C80.121 9.256 79.329 7.816 79.329 5.716ZM86.0461 3.388H87.8461V10H88.8781V1.396H88.2421C88.0381 2.284 87.5101 2.692 86.0461 2.692V3.388ZM93.9569 1.288C92.3609 1.288 91.1369 2.176 91.1369 3.652C91.1369 4.624 91.7129 5.32 92.5529 5.656C91.6409 5.824 90.7529 6.652 90.7529 7.66C90.7529 9.136 92.0129 10.144 93.9569 10.144C95.9249 10.144 97.1729 9.136 97.1729 7.66C97.1729 6.652 96.2849 5.824 95.3729 5.656C96.2249 5.32 96.7889 4.624 96.7889 3.652C96.7889 2.176 95.5649 1.288 93.9569 1.288ZM93.9569 5.212C92.9369 5.212 92.0849 4.708 92.0849 3.652C92.0849 2.608 92.9369 2.104 93.9569 2.104C94.9889 2.104 95.8409 2.608 95.8409 3.652C95.8409 4.708 94.9889 5.212 93.9569 5.212ZM93.9569 9.316C92.6129 9.316 91.7849 8.668 91.7849 7.66C91.7849 6.664 92.6129 6.04 93.9569 6.04C95.3249 6.04 96.1409 6.664 96.1409 7.66C96.1409 8.668 95.3249 9.316 93.9569 9.316ZM108.866 1.732H105.47C105.43 1.94 105.41 2.94 105.41 4.732V6.508C105.41 7.604 105.43 8.32 105.47 8.656C105.51 8.936 105.634 9.136 105.842 9.256C106.05 9.368 106.406 9.448 106.91 9.496C107.03 9.512 107.09 9.596 107.09 9.748C107.09 9.916 107.03 10 106.91 10H102.122C102.002 10 101.942 9.92 101.942 9.76C101.942 9.608 102.006 9.52 102.134 9.496C102.67 9.432 103.034 9.348 103.226 9.244C103.418 9.132 103.526 8.936 103.55 8.656C103.59 8.176 103.61 7.456 103.61 6.496V4.228C103.61 2.716 103.594 1.884 103.562 1.732L102.674 1.768C102.194 1.784 101.826 1.956 101.57 2.284C101.314 2.612 101.158 3.032 101.102 3.544C101.094 3.696 100.994 3.772 100.802 3.772C100.618 3.772 100.526 3.704 100.526 3.568V1.36C100.526 1.192 100.618 1.108 100.802 1.108H108.326C108.598 1.108 108.858 1.032 109.106 0.88C109.362 0.72 109.586 0.56 109.778 0.4C109.978 0.24 110.142 0.16 110.27 0.16C110.534 0.16 110.666 0.328 110.666 0.664C110.666 0.704 110.658 0.984 110.642 1.504C110.634 2.024 110.63 2.536 110.63 3.04V4.756L111.026 4.492C111.77 3.996 112.442 3.748 113.042 3.748C113.506 3.748 113.902 3.908 114.23 4.228C114.558 4.548 114.722 5.064 114.722 5.776V8.728C114.722 9.048 114.766 9.252 114.854 9.34C114.942 9.428 115.166 9.5 115.526 9.556C115.646 9.564 115.706 9.64 115.706 9.784C115.706 9.928 115.638 10 115.502 10H112.31C112.166 10 112.094 9.928 112.094 9.784C112.094 9.656 112.154 9.584 112.274 9.568C112.474 9.544 112.614 9.492 112.694 9.412C112.774 9.332 112.834 9.172 112.874 8.932C112.914 8.684 112.934 8.284 112.934 7.732V6.112C112.934 5.392 112.654 5.032 112.094 5.032C111.678 5.032 111.19 5.18 110.63 5.476V8.728C110.63 9.048 110.674 9.252 110.762 9.34C110.85 9.428 111.074 9.5 111.434 9.556C111.554 9.564 111.614 9.64 111.614 9.784C111.614 9.928 111.546 10 111.41 10H107.882C107.738 10 107.666 9.928 107.666 9.784C107.666 9.656 107.726 9.584 107.846 9.568C108.014 9.552 108.146 9.528 108.242 9.496C108.338 9.464 108.442 9.4 108.554 9.304C108.666 9.208 108.746 9.06 108.794 8.86C108.842 8.652 108.866 8.384 108.866 8.056V1.732ZM119.14 4.384C118.828 4.384 118.556 4.56 118.324 4.912C118.1 5.264 117.968 5.688 117.928 6.184L119.548 6.052C119.692 6.044 119.792 6.008 119.848 5.944C119.904 5.872 119.932 5.76 119.932 5.608C119.932 5.208 119.86 4.904 119.716 4.696C119.58 4.488 119.388 4.384 119.14 4.384ZM119.62 8.86C119.884 8.86 120.12 8.828 120.328 8.764C120.536 8.692 120.688 8.616 120.784 8.536C120.88 8.448 120.972 8.372 121.06 8.308C121.148 8.236 121.224 8.2 121.288 8.2C121.416 8.2 121.48 8.264 121.48 8.392C121.48 8.8 121.236 9.188 120.748 9.556C120.26 9.924 119.668 10.108 118.972 10.108C118.132 10.108 117.46 9.864 116.956 9.376C116.452 8.88 116.2 8.2 116.2 7.336C116.2 6.248 116.496 5.38 117.088 4.732C117.688 4.076 118.476 3.748 119.452 3.748C119.7 3.748 119.944 3.788 120.184 3.868C120.432 3.948 120.668 4.076 120.892 4.252C121.116 4.42 121.296 4.668 121.432 4.996C121.576 5.316 121.648 5.688 121.648 6.112C121.648 6.304 121.6 6.436 121.504 6.508C121.408 6.58 121.244 6.624 121.012 6.64L117.868 6.784C117.876 7.44 118.032 7.952 118.336 8.32C118.648 8.68 119.076 8.86 119.62 8.86ZM125.352 10.12C124.44 10.12 123.712 9.856 123.168 9.328C122.632 8.8 122.364 8.076 122.364 7.156C122.364 6.564 122.456 6.044 122.64 5.596C122.824 5.148 123.072 4.792 123.384 4.528C123.704 4.264 124.06 4.068 124.452 3.94C124.844 3.812 125.268 3.748 125.724 3.748C126.628 3.748 127.356 4.016 127.908 4.552C128.46 5.08 128.736 5.804 128.736 6.724C128.736 7.844 128.42 8.692 127.788 9.268C127.164 9.836 126.352 10.12 125.352 10.12ZM125.628 9.496C126.38 9.496 126.756 8.692 126.756 7.084C126.756 6.156 126.656 5.48 126.456 5.056C126.264 4.632 125.94 4.42 125.484 4.42C124.7 4.42 124.308 5.204 124.308 6.772C124.308 7.74 124.412 8.436 124.62 8.86C124.836 9.284 125.172 9.496 125.628 9.496ZM129.598 4.612H129.418C129.282 4.612 129.214 4.54 129.214 4.396C129.214 4.268 129.27 4.188 129.382 4.156C129.566 4.1 129.95 4.04 130.534 3.976C131.126 3.904 131.482 3.868 131.602 3.868C131.93 3.868 132.094 4.388 132.094 5.428L132.166 5.452C132.414 4.804 132.674 4.36 132.946 4.12C133.218 3.872 133.522 3.748 133.858 3.748C134.17 3.748 134.418 3.844 134.602 4.036C134.786 4.22 134.878 4.468 134.878 4.78C134.878 5.092 134.766 5.344 134.542 5.536C134.318 5.728 134.138 5.824 134.002 5.824C133.89 5.472 133.65 5.296 133.282 5.296C133.01 5.296 132.75 5.456 132.502 5.776C132.254 6.088 132.13 6.564 132.13 7.204C132.13 8.028 132.15 8.536 132.19 8.728C132.214 8.848 132.262 8.956 132.334 9.052C132.414 9.14 132.49 9.208 132.562 9.256C132.642 9.304 132.762 9.352 132.922 9.4C133.082 9.44 133.206 9.468 133.294 9.484C133.39 9.5 133.538 9.524 133.738 9.556C133.858 9.564 133.918 9.64 133.918 9.784C133.918 9.928 133.85 10 133.714 10H129.514C129.37 10 129.298 9.928 129.298 9.784C129.298 9.656 129.358 9.584 129.478 9.568C129.646 9.552 129.778 9.528 129.874 9.496C129.97 9.464 130.074 9.4 130.186 9.304C130.298 9.208 130.378 9.06 130.426 8.86C130.474 8.652 130.498 8.384 130.498 8.056V6.748C130.498 6.044 130.434 5.512 130.306 5.152C130.178 4.792 129.942 4.612 129.598 4.612ZM138.007 4.384C137.695 4.384 137.423 4.56 137.191 4.912C136.967 5.264 136.835 5.688 136.795 6.184L138.415 6.052C138.559 6.044 138.659 6.008 138.715 5.944C138.771 5.872 138.799 5.76 138.799 5.608C138.799 5.208 138.727 4.904 138.583 4.696C138.447 4.488 138.255 4.384 138.007 4.384ZM138.487 8.86C138.751 8.86 138.987 8.828 139.195 8.764C139.403 8.692 139.555 8.616 139.651 8.536C139.747 8.448 139.839 8.372 139.927 8.308C140.015 8.236 140.091 8.2 140.155 8.2C140.283 8.2 140.347 8.264 140.347 8.392C140.347 8.8 140.103 9.188 139.615 9.556C139.127 9.924 138.535 10.108 137.839 10.108C136.999 10.108 136.327 9.864 135.823 9.376C135.319 8.88 135.067 8.2 135.067 7.336C135.067 6.248 135.363 5.38 135.955 4.732C136.555 4.076 137.343 3.748 138.319 3.748C138.567 3.748 138.811 3.788 139.051 3.868C139.299 3.948 139.535 4.076 139.759 4.252C139.983 4.42 140.163 4.668 140.299 4.996C140.443 5.316 140.515 5.688 140.515 6.112C140.515 6.304 140.467 6.436 140.371 6.508C140.275 6.58 140.111 6.624 139.879 6.64L136.735 6.784C136.743 7.44 136.899 7.952 137.203 8.32C137.515 8.68 137.943 8.86 138.487 8.86ZM147.699 4.828L148.239 4.432C148.855 3.976 149.487 3.748 150.135 3.748C150.591 3.748 150.959 3.9 151.239 4.204C151.527 4.508 151.671 5.008 151.671 5.704V8.728C151.671 9.048 151.715 9.252 151.803 9.34C151.891 9.428 152.115 9.5 152.475 9.556C152.595 9.564 152.655 9.64 152.655 9.784C152.655 9.928 152.587 10 152.451 10H149.259C149.115 10 149.043 9.928 149.043 9.784C149.043 9.656 149.103 9.584 149.223 9.568C149.423 9.544 149.563 9.492 149.643 9.412C149.723 9.332 149.783 9.172 149.823 8.932C149.863 8.684 149.883 8.284 149.883 7.732V6.112C149.883 5.392 149.603 5.032 149.043 5.032C148.723 5.032 148.315 5.18 147.819 5.476V8.728C147.819 9.032 147.855 9.232 147.927 9.328C147.999 9.424 148.151 9.5 148.383 9.556C148.503 9.58 148.563 9.66 148.563 9.796C148.563 9.932 148.495 10 148.359 10H145.407C145.263 10 145.191 9.928 145.191 9.784C145.191 9.656 145.251 9.584 145.371 9.568C145.571 9.544 145.711 9.492 145.791 9.412C145.871 9.332 145.931 9.172 145.971 8.932C146.011 8.684 146.031 8.284 146.031 7.732V6.112C146.031 5.392 145.751 5.032 145.191 5.032C145.087 5.032 144.983 5.048 144.879 5.08C144.775 5.104 144.695 5.128 144.639 5.152C144.591 5.168 144.483 5.22 144.315 5.308C144.147 5.388 144.031 5.444 143.967 5.476V8.728C143.967 9.032 144.003 9.232 144.075 9.328C144.147 9.424 144.299 9.5 144.531 9.556C144.651 9.58 144.711 9.66 144.711 9.796C144.711 9.932 144.643 10 144.507 10H141.219C141.075 10 141.003 9.928 141.003 9.784C141.003 9.656 141.063 9.584 141.183 9.568C141.351 9.552 141.483 9.528 141.579 9.496C141.675 9.464 141.779 9.4 141.891 9.304C142.003 9.208 142.083 9.06 142.131 8.86C142.179 8.652 142.203 8.384 142.203 8.056V6.748C142.203 6.372 142.195 6.076 142.179 5.86C142.171 5.644 142.139 5.428 142.083 5.212C142.035 4.996 141.955 4.844 141.843 4.756C141.739 4.66 141.599 4.612 141.423 4.612H141.171C141.059 4.612 141.003 4.54 141.003 4.396C141.003 4.268 141.059 4.188 141.171 4.156C141.363 4.1 141.747 4.04 142.323 3.976C142.899 3.904 143.271 3.868 143.439 3.868C143.631 3.868 143.763 3.936 143.835 4.072C143.915 4.208 143.959 4.436 143.967 4.756L144.375 4.468C145.055 3.988 145.691 3.748 146.283 3.748C146.995 3.748 147.467 4.108 147.699 4.828ZM153.977 9.988H154.553V10.204C154.553 10.996 154.205 11.272 153.593 11.272V11.884C154.685 11.884 155.285 11.2 155.285 10.204V8.692H153.977V9.988ZM160.186 10H165.826V9.136H161.218V1.432H160.186V10ZM167.639 10H173.279V9.136H168.671V1.432H167.639V10ZM175.234 5.704C175.234 3.568 176.254 2.164 178.018 2.164C179.458 2.164 180.082 2.968 180.274 3.928H181.282C181.006 2.368 179.89 1.288 178.018 1.288C175.81 1.288 174.178 3.016 174.178 5.704C174.178 8.404 175.81 10.144 178.018 10.144C179.89 10.144 181.006 9.064 181.282 7.504H180.274C180.082 8.464 179.458 9.268 178.018 9.268C176.254 9.268 175.234 7.84 175.234 5.704ZM182.993 10H184.301V8.692H182.993V10ZM195.322 10H196.402L192.922 1.432H191.758L188.29 10H189.322L190.27 7.612H194.374L195.322 10ZM192.31 2.464H192.346L194.038 6.76H190.606L192.31 2.464ZM198.669 10V1.168H197.673V10H198.669ZM201.798 10V1.168H200.802V10H201.798ZM207.601 10V6.532H209.881L212.101 10H213.265L210.913 6.376C211.921 6.148 212.893 5.368 212.893 3.976C212.893 2.332 211.801 1.432 209.881 1.432H206.581V10H207.601ZM207.601 5.668V2.296H209.821C211.117 2.296 211.849 2.896 211.849 3.976C211.849 5.092 211.117 5.668 209.821 5.668H207.601ZM218.154 3.88C218.01 3.844 217.842 3.832 217.686 3.832C216.798 3.832 216.03 4.396 215.766 5.392V3.964H214.806V10H215.802V7.024C215.802 5.5 216.678 4.744 217.638 4.744C217.794 4.744 218.01 4.756 218.154 4.792V3.88ZM219.351 2.704H220.479V1.492H219.351V2.704ZM219.423 10H220.419V3.964H219.423V10ZM226.776 9.616C226.776 10.876 226.104 11.512 224.916 11.512C224.1 11.512 223.464 11.272 223.26 10.516H222.252C222.492 11.692 223.476 12.28 224.928 12.28C226.536 12.28 227.784 11.464 227.784 9.544V3.964H226.812V5.02C226.524 4.444 225.828 3.82 224.772 3.82C223.224 3.82 222.096 5.032 222.096 6.844C222.096 8.728 223.224 9.892 224.772 9.892C225.828 9.892 226.5 9.316 226.776 8.728V9.616ZM226.848 6.988C226.848 8.236 226.068 9.1 224.952 9.1C223.776 9.1 223.08 8.176 223.08 6.844C223.08 5.5 223.776 4.6 224.952 4.6C226.068 4.6 226.848 5.452 226.848 6.7V6.988ZM230.919 5.068V1.168H229.923V10H230.919V6.676C230.919 5.224 231.651 4.636 232.575 4.636C233.523 4.636 234.015 5.212 234.015 6.328V10H235.011V6.112C235.011 4.672 234.207 3.82 232.851 3.82C231.927 3.82 231.207 4.3 230.919 5.068ZM239.892 9.112C239.508 9.232 239.244 9.256 239.016 9.256C238.464 9.256 238.14 9.04 238.14 8.404V4.72H239.736V3.964H238.152V2.428H237.168V3.964H236.28V4.72H237.168V8.452C237.168 9.568 237.732 10.096 238.836 10.096C239.1 10.096 239.448 10.06 239.892 9.928V9.112ZM240.997 8.212C241.105 9.508 242.185 10.144 243.625 10.144C244.981 10.144 245.977 9.364 245.977 8.308C245.977 7.336 245.401 6.856 244.417 6.664L243.217 6.436C242.521 6.304 242.161 6.088 242.161 5.572C242.161 4.984 242.677 4.588 243.481 4.588C244.309 4.588 244.849 4.948 244.921 5.56H245.845C245.725 4.42 244.873 3.82 243.481 3.82C242.149 3.82 241.237 4.612 241.237 5.632C241.237 6.688 241.945 7.084 242.917 7.264L243.985 7.48C244.753 7.624 245.041 7.912 245.041 8.356C245.041 9.004 244.441 9.388 243.613 9.388C242.797 9.388 242.029 9.04 241.957 8.212H240.997ZM251.37 10V6.532H253.65L255.87 10H257.034L254.682 6.376C255.69 6.148 256.662 5.368 256.662 3.976C256.662 2.332 255.57 1.432 253.65 1.432H250.35V10H251.37ZM251.37 5.668V2.296H253.59C254.886 2.296 255.618 2.896 255.618 3.976C255.618 5.092 254.886 5.668 253.59 5.668H251.37ZM263.532 8.224H262.596C262.344 8.956 261.852 9.352 261.036 9.352C259.884 9.352 259.152 8.584 259.104 7.192H263.568V6.796C263.568 5.248 262.764 3.82 260.976 3.82C259.368 3.82 258.132 5.044 258.132 7.012C258.132 8.956 259.332 10.144 261.036 10.144C262.212 10.144 263.256 9.508 263.532 8.224ZM260.976 4.624C262.056 4.624 262.572 5.428 262.596 6.472H259.14C259.308 5.236 260.028 4.624 260.976 4.624ZM264.798 8.212C264.906 9.508 265.986 10.144 267.426 10.144C268.782 10.144 269.778 9.364 269.778 8.308C269.778 7.336 269.202 6.856 268.218 6.664L267.018 6.436C266.322 6.304 265.962 6.088 265.962 5.572C265.962 4.984 266.478 4.588 267.282 4.588C268.11 4.588 268.65 4.948 268.722 5.56H269.646C269.526 4.42 268.674 3.82 267.282 3.82C265.95 3.82 265.038 4.612 265.038 5.632C265.038 6.688 265.746 7.084 266.718 7.264L267.786 7.48C268.554 7.624 268.842 7.912 268.842 8.356C268.842 9.004 268.242 9.388 267.414 9.388C266.598 9.388 265.83 9.04 265.758 8.212H264.798ZM276.458 8.224H275.522C275.27 8.956 274.778 9.352 273.962 9.352C272.81 9.352 272.078 8.584 272.03 7.192H276.494V6.796C276.494 5.248 275.69 3.82 273.902 3.82C272.294 3.82 271.058 5.044 271.058 7.012C271.058 8.956 272.258 10.144 273.962 10.144C275.138 10.144 276.182 9.508 276.458 8.224ZM273.902 4.624C274.982 4.624 275.498 5.428 275.522 6.472H272.066C272.234 5.236 272.954 4.624 273.902 4.624ZM281.529 3.88C281.385 3.844 281.217 3.832 281.061 3.832C280.173 3.832 279.405 4.396 279.141 5.392V3.964H278.181V10H279.177V7.024C279.177 5.5 280.053 4.744 281.013 4.744C281.169 4.744 281.385 4.756 281.529 4.792V3.88ZM284.666 10H285.782L288.098 3.964H287.102L285.242 9.016H285.218L283.274 3.964H282.254L284.666 10ZM294.27 8.224H293.334C293.082 8.956 292.59 9.352 291.774 9.352C290.622 9.352 289.89 8.584 289.842 7.192H294.306V6.796C294.306 5.248 293.502 3.82 291.714 3.82C290.106 3.82 288.87 5.044 288.87 7.012C288.87 8.956 290.07 10.144 291.774 10.144C292.95 10.144 293.994 9.508 294.27 8.224ZM291.714 4.624C292.794 4.624 293.31 5.428 293.334 6.472H289.878C290.046 5.236 290.766 4.624 291.714 4.624ZM300.29 10H301.25V1.168H300.253V5.032C299.977 4.42 299.294 3.82 298.249 3.82C296.714 3.82 295.562 5.068 295.562 6.988C295.562 8.896 296.714 10.144 298.249 10.144C299.245 10.144 299.99 9.556 300.29 8.944V10ZM300.301 7.06C300.301 8.428 299.63 9.364 298.454 9.364C297.266 9.364 296.57 8.392 296.57 6.988C296.57 5.572 297.266 4.6 298.454 4.6C299.63 4.6 300.301 5.524 300.301 6.892V7.06ZM303.508 10H304.816V8.692H303.508V10Z" fill="white"/>
</svg>
