<svg width="143" height="32" viewBox="0 0 143 32" fill="none" xmlns="http://www.w3.org/2000/svg">
<path d="M30.3646 1.146H28.6596V9H30.0566V2.917H30.0786L34.1156 9H35.4686V1.146H34.0826V6.712H34.0606L30.3646 1.146ZM42.1813 7.262H40.8833C40.6963 7.801 40.3003 8.098 39.6623 8.098C38.7933 8.098 38.2873 7.537 38.1993 6.547H42.2143V6.096C42.2143 4.611 41.3783 3.28 39.6293 3.28C38.0563 3.28 36.8353 4.391 36.8353 6.217C36.8353 8.043 38.0343 9.132 39.6623 9.132C40.9383 9.132 41.9393 8.461 42.1813 7.262ZM39.6293 4.325C40.4763 4.325 40.8723 4.941 40.8723 5.634H38.2433C38.3973 4.776 38.8923 4.325 39.6293 4.325ZM44.2134 9L45.6104 7.086L46.9964 9H48.6134L46.4464 6.074L48.4374 3.412H46.9304L45.6874 5.139L44.4554 3.412H42.8384L44.8514 6.14L42.7064 9H44.2134ZM52.694 7.845C52.386 7.933 52.166 7.955 51.957 7.955C51.484 7.955 51.231 7.779 51.231 7.251V4.424H52.573V3.412H51.242V2.015H49.845V3.412H49.075V4.424H49.845V7.471C49.845 8.593 50.417 9.088 51.583 9.088C51.924 9.088 52.254 9.055 52.694 8.923V7.845ZM56.3529 9H57.8159V5.854H61.3689V4.699H57.8159V2.301H61.7759V1.146H56.3529V9ZM67.7907 7.262H66.4927C66.3057 7.801 65.9097 8.098 65.2717 8.098C64.4027 8.098 63.8967 7.537 63.8087 6.547H67.8237V6.096C67.8237 4.611 66.9877 3.28 65.2387 3.28C63.6657 3.28 62.4447 4.391 62.4447 6.217C62.4447 8.043 63.6437 9.132 65.2717 9.132C66.5477 9.132 67.5487 8.461 67.7907 7.262ZM65.2387 4.325C66.0857 4.325 66.4817 4.941 66.4817 5.634H63.8527C64.0067 4.776 64.5017 4.325 65.2387 4.325ZM74.1393 7.262H72.8413C72.6543 7.801 72.2583 8.098 71.6203 8.098C70.7513 8.098 70.2453 7.537 70.1573 6.547H74.1723V6.096C74.1723 4.611 73.3363 3.28 71.5873 3.28C70.0143 3.28 68.7933 4.391 68.7933 6.217C68.7933 8.043 69.9923 9.132 71.6203 9.132C72.8963 9.132 73.8973 8.461 74.1393 7.262ZM71.5873 4.325C72.4343 4.325 72.8303 4.941 72.8303 5.634H70.2013C70.3553 4.776 70.8503 4.325 71.5873 4.325ZM79.3989 9H80.7849V0.903999H79.3769V4.325C79.1129 3.764 78.4749 3.28 77.6059 3.28C76.1429 3.28 75.1419 4.479 75.1419 6.206C75.1419 7.944 76.1429 9.132 77.6059 9.132C78.4529 9.132 79.1239 8.67 79.3989 8.109V9ZM79.4099 6.305C79.4099 7.394 78.8929 8.098 78.0019 8.098C77.0889 8.098 76.5609 7.361 76.5609 6.206C76.5609 5.062 77.0889 4.314 78.0019 4.314C78.8929 4.314 79.4099 5.018 79.4099 6.107V6.305ZM83.8846 8.109C84.1596 8.67 84.8306 9.132 85.6776 9.132C87.1406 9.132 88.1416 7.944 88.1416 6.206C88.1416 4.479 87.1406 3.28 85.6776 3.28C84.8086 3.28 84.1706 3.764 83.9066 4.325V0.903999H82.4986V9H83.8846V8.109ZM83.8736 6.107C83.8736 5.018 84.3906 4.314 85.2816 4.314C86.1946 4.314 86.7226 5.062 86.7226 6.206C86.7226 7.361 86.1946 8.098 85.2816 8.098C84.3906 8.098 83.8736 7.394 83.8736 6.305V6.107ZM92.8803 9H94.2333C94.1453 8.549 94.1233 8.12 94.1233 7.603V5.447C94.1233 3.995 93.2543 3.28 91.7363 3.28C90.3613 3.28 89.4263 3.984 89.3053 5.183H90.6583C90.7023 4.666 91.0763 4.325 91.6923 4.325C92.3303 4.325 92.7483 4.655 92.7483 5.337V5.601L91.0763 5.788C89.9433 5.92 89.0633 6.382 89.0633 7.504C89.0633 8.516 89.8553 9.121 90.9443 9.121C91.8353 9.121 92.5393 8.758 92.8033 8.12C92.8033 8.395 92.8253 8.692 92.8803 9ZM91.3293 8.142C90.7683 8.142 90.4603 7.867 90.4603 7.427C90.4603 6.844 90.9113 6.712 91.5053 6.635L92.7483 6.492V6.833C92.7483 7.713 92.0553 8.142 91.3293 8.142ZM95.4017 6.206C95.4017 8.021 96.5677 9.132 98.2067 9.132C99.5927 9.132 100.484 8.34 100.638 7.086H99.3067C99.1967 7.68 98.8337 8.076 98.1957 8.076C97.3047 8.076 96.8097 7.35 96.8097 6.206C96.8097 5.073 97.3047 4.336 98.1957 4.336C98.8337 4.336 99.1967 4.721 99.3067 5.326H100.638C100.484 4.083 99.5927 3.28 98.2067 3.28C96.5677 3.28 95.4017 4.402 95.4017 6.206ZM105.804 9H107.421L104.946 5.744L107.311 3.412H105.694L103.318 5.81V0.903999H101.91V9H103.318V7.262L103.967 6.635L105.804 9ZM111.883 5.062C111.883 3.28 112.675 2.169 114.094 2.169C115.216 2.169 115.733 2.807 115.887 3.61H117.306C117.031 2.07 115.975 1.014 114.094 1.014C111.894 1.014 110.398 2.642 110.398 5.062C110.398 7.504 111.894 9.132 114.094 9.132C115.975 9.132 117.031 8.065 117.306 6.536H115.887C115.733 7.339 115.216 7.977 114.094 7.977C112.675 7.977 111.883 6.855 111.883 5.062ZM120.1 8.989C119.803 9.759 119.561 9.957 118.989 9.957C118.868 9.957 118.78 9.957 118.615 9.924V10.991C118.813 11.024 119.077 11.046 119.264 11.046C120.441 11.035 121.09 10.496 121.618 9.099L123.796 3.412H122.399L120.925 7.625H120.903L119.352 3.412H117.922L120.1 8.989ZM124.298 6.206C124.298 8.021 125.464 9.132 127.103 9.132C128.489 9.132 129.38 8.34 129.534 7.086H128.203C128.093 7.68 127.73 8.076 127.092 8.076C126.201 8.076 125.706 7.35 125.706 6.206C125.706 5.073 126.201 4.336 127.092 4.336C127.73 4.336 128.093 4.721 128.203 5.326H129.534C129.38 4.083 128.489 3.28 127.103 3.28C125.464 3.28 124.298 4.402 124.298 6.206ZM132.214 9V0.903999H130.806V9H132.214ZM138.893 7.262H137.595C137.408 7.801 137.012 8.098 136.374 8.098C135.505 8.098 134.999 7.537 134.911 6.547H138.926V6.096C138.926 4.611 138.09 3.28 136.341 3.28C134.768 3.28 133.547 4.391 133.547 6.217C133.547 8.043 134.746 9.132 136.374 9.132C137.65 9.132 138.651 8.461 138.893 7.262ZM136.341 4.325C137.188 4.325 137.584 4.941 137.584 5.634H134.955C135.109 4.776 135.604 4.325 136.341 4.325ZM140.38 5.425H142.019V3.786H140.38V5.425ZM140.38 9H142.019V7.361H140.38V9Z" fill="#59636E"/>
<path d="M0.236375 25.624C0.396375 28.12 2.47638 29.192 4.95638 29.192C7.37238 29.192 9.10038 27.816 9.10038 25.864C9.10038 24.056 7.98038 23.24 6.22038 22.888L3.98038 22.424C2.58838 22.152 1.94838 21.752 1.94838 20.616C1.94838 19.416 2.94038 18.488 4.60438 18.488C6.23638 18.488 7.35638 19.224 7.54838 20.504H8.87638C8.65238 18.44 7.03638 17.384 4.58838 17.384C2.22038 17.384 0.604375 18.792 0.604375 20.664C0.604375 22.632 1.98038 23.336 3.51638 23.624L5.69238 24.056C7.24438 24.344 7.77238 24.968 7.77238 25.928C7.77238 27.304 6.57238 28.088 4.94038 28.088C3.24438 28.088 1.74038 27.464 1.56438 25.624H0.236375ZM18.0476 26.632H16.7996C16.4636 27.608 15.8076 28.136 14.7196 28.136C13.1836 28.136 12.2076 27.112 12.1436 25.256H18.0956V24.728C18.0956 22.664 17.0236 20.76 14.6396 20.76C12.4956 20.76 10.8476 22.392 10.8476 25.016C10.8476 27.608 12.4476 29.192 14.7196 29.192C16.2876 29.192 17.6796 28.344 18.0476 26.632ZM14.6396 21.832C16.0796 21.832 16.7676 22.904 16.7996 24.296H12.1916C12.4156 22.648 13.3756 21.832 14.6396 21.832ZM21.6739 27.592C22.0739 28.408 23.0179 29.192 24.3459 29.192C26.3939 29.192 27.9299 27.528 27.9299 24.984C27.9299 22.424 26.3939 20.76 24.3459 20.76C22.9539 20.76 21.9939 21.608 21.6259 22.424V20.952H20.3459V31.848H21.6739V27.592ZM21.6099 24.856C21.6099 23.032 22.5059 21.8 24.0739 21.8C25.6579 21.8 26.5859 23.096 26.5859 24.984C26.5859 26.856 25.6579 28.152 24.0739 28.152C22.5059 28.152 21.6099 26.904 21.6099 25.08V24.856ZM33.9336 27.816C33.4216 27.976 33.0696 28.008 32.7656 28.008C32.0296 28.008 31.5976 27.72 31.5976 26.872V21.96H33.7256V20.952H31.6136V18.904H30.3016V20.952H29.1176V21.96H30.3016V26.936C30.3016 28.424 31.0536 29.128 32.5256 29.128C32.8776 29.128 33.3416 29.08 33.9336 28.904V27.816ZM46.5086 20.712C46.5086 19.016 45.2926 17.384 42.8926 17.384C40.4926 17.384 39.1166 19.08 39.0046 21.096H40.3006C40.3966 19.72 41.3086 18.536 42.8766 18.536C44.5726 18.536 45.1966 19.624 45.1966 20.712C45.1966 22.04 43.9646 22.888 42.4446 23.864C40.7486 24.92 38.7806 26.344 38.7806 28.376V29H46.6206V27.848H40.2526C40.2526 26.808 41.6286 25.848 43.0206 24.92C44.7326 23.816 46.5086 22.856 46.5086 20.712ZM48.1609 23.288C48.1609 26.712 49.9369 29.192 52.7049 29.192C55.4889 29.192 57.2489 26.712 57.2489 23.288C57.2489 19.864 55.4889 17.384 52.7049 17.384C49.9369 17.384 48.1609 19.864 48.1609 23.288ZM49.5689 23.288C49.5689 20.488 50.6249 18.568 52.7049 18.568C54.8009 18.568 55.8569 20.488 55.8569 23.288C55.8569 26.088 54.8009 28.008 52.7049 28.008C50.6249 28.008 49.5689 26.088 49.5689 23.288ZM58.525 20.184H60.925V29H62.301V17.528H61.453C61.181 18.712 60.477 19.256 58.525 19.256V20.184ZM69.0728 17.384C66.9448 17.384 65.3128 18.568 65.3128 20.536C65.3128 21.832 66.0807 22.76 67.2008 23.208C65.9848 23.432 64.8008 24.536 64.8008 25.88C64.8008 27.848 66.4808 29.192 69.0728 29.192C71.6968 29.192 73.3608 27.848 73.3608 25.88C73.3608 24.536 72.1768 23.432 70.9608 23.208C72.0968 22.76 72.8488 21.832 72.8488 20.536C72.8488 18.568 71.2168 17.384 69.0728 17.384ZM69.0728 22.616C67.7128 22.616 66.5768 21.944 66.5768 20.536C66.5768 19.144 67.7128 18.472 69.0728 18.472C70.4488 18.472 71.5848 19.144 71.5848 20.536C71.5848 21.944 70.4488 22.616 69.0728 22.616ZM69.0728 28.088C67.2808 28.088 66.1768 27.224 66.1768 25.88C66.1768 24.552 67.2808 23.72 69.0728 23.72C70.8968 23.72 71.9848 24.552 71.9848 25.88C71.9848 27.224 70.8968 28.088 69.0728 28.088Z" fill="#031323"/>
<path d="M79.0639 25.064H87.1119V24.008H79.0639V25.064Z" fill="#ACB1B6"/>
<path d="M100.051 17.576H97.7474L92.3554 24.504V26.136H98.0194V29H100.051V26.136H102.323V24.52H100.051V17.576ZM98.0194 19.56V24.52H94.2274L98.0194 19.56ZM113.021 29H115.037V17.224H112.989V22.2C112.605 21.384 111.677 20.68 110.413 20.68C108.285 20.68 106.829 22.424 106.829 24.936C106.829 27.464 108.285 29.192 110.413 29.192C111.645 29.192 112.621 28.52 113.021 27.704V29ZM113.037 25.08C113.037 26.664 112.285 27.688 110.989 27.688C109.661 27.688 108.893 26.616 108.893 24.936C108.893 23.272 109.661 22.184 110.989 22.184C112.285 22.184 113.037 23.208 113.037 24.792V25.08ZM122.489 29H124.457C124.329 28.344 124.297 27.72 124.297 26.968V23.832C124.297 21.72 123.033 20.68 120.825 20.68C118.825 20.68 117.465 21.704 117.289 23.448H119.257C119.321 22.696 119.865 22.2 120.761 22.2C121.689 22.2 122.297 22.68 122.297 23.672V24.056L119.865 24.328C118.217 24.52 116.937 25.192 116.937 26.824C116.937 28.296 118.089 29.176 119.673 29.176C120.969 29.176 121.993 28.648 122.377 27.72C122.377 28.12 122.409 28.552 122.489 29ZM120.233 27.752C119.417 27.752 118.969 27.352 118.969 26.712C118.969 25.864 119.625 25.672 120.489 25.56L122.297 25.352V25.848C122.297 27.128 121.289 27.752 120.233 27.752ZM128.847 28.984C128.415 30.104 128.063 30.392 127.231 30.392C127.055 30.392 126.927 30.392 126.687 30.344V31.896C126.975 31.944 127.359 31.976 127.631 31.976C129.343 31.96 130.287 31.176 131.055 29.144L134.223 20.872H132.191L130.047 27H130.015L127.759 20.872H125.679L128.847 28.984ZM135.03 26.536C135.206 28.312 136.726 29.192 138.838 29.192C140.774 29.192 142.262 28.168 142.262 26.616C142.262 25.272 141.462 24.488 140.038 24.248L138.454 23.976C137.622 23.832 137.206 23.624 137.206 23.064C137.206 22.504 137.766 22.12 138.63 22.12C139.526 22.12 140.15 22.536 140.23 23.176H142.102C141.926 21.608 140.726 20.68 138.614 20.68C136.726 20.68 135.318 21.736 135.318 23.272C135.318 24.728 136.31 25.352 137.654 25.592L139.094 25.848C139.99 26.008 140.342 26.248 140.342 26.76C140.342 27.416 139.67 27.768 138.806 27.768C137.926 27.768 137.078 27.384 136.982 26.536H135.03Z" fill="#17BEA0"/>
</svg>
